<svg xmlns="http://www.w3.org/2000/svg" viewBox="0 0 155 155"><defs><style>.cls-1{fill:#8fdef6;}.cls-2{fill:#70c9e9;}.cls-3{fill:#fff;}.cls-4{fill:#f2f2f2;}.cls-5{fill:#ea6552;}.cls-6{fill:#e24f3b;}.cls-7{fill:#f5b540;}.cls-8{fill:#495057;}.cls-9{fill:#343b43;}</style></defs><title>Дизайн</title><g id="Слой_2" data-name="Слой 2"><g id="Layer_1" data-name="Layer 1"><circle class="cls-1" cx="77.5" cy="77.5" r="77.5"/><path class="cls-2" d="M155,77.5c0-.94,0-1.88-.07-2.81L119.12,38.88A3,3,0,0,0,117,38H38a3,3,0,0,0-3,3v62a3,3,0,0,0,.88,2.12l8.5,8.5L35,123l31.17,31.17A78.38,78.38,0,0,0,77.5,155,77.5,77.5,0,0,0,155,77.5Z"/><path class="cls-3" d="M120,103a3,3,0,0,1-3,3H38a3,3,0,0,1-3-3V53.3h85Z"/><path class="cls-4" d="M120,53.3H35V41a3,3,0,0,1,3-3h79a3,3,0,0,1,3,3Z"/><rect class="cls-5" x="66.75" y="59.74" width="21.5" height="18"/><rect class="cls-5" x="41.5" y="81.5" width="72" height="18"/><rect class="cls-5" x="92" y="59.74" width="21.5" height="18"/><rect class="cls-5" x="41.5" y="59.74" width="21.5" height="18"/><circle class="cls-6" cx="42.5" cy="45.65" r="2.5"/><circle class="cls-7" cx="50" cy="45.65" r="2.5"/><circle class="cls-2" cx="57.5" cy="45.65" r="2.5"/><rect class="cls-8" x="35" y="110" width="85" height="13"/><rect class="cls-9" x="35" y="119" width="85" height="4"/><rect class="cls-3" x="38.72" y="110" width="2" height="4"/><rect class="cls-3" x="43.44" y="110" width="2" height="2"/><rect class="cls-3" x="48.17" y="110" width="2" height="4"/><rect class="cls-3" x="52.89" y="110" width="2" height="2"/><rect class="cls-3" x="57.61" y="110" width="2" height="4"/><rect class="cls-3" x="62.33" y="110" width="2" height="2"/><rect class="cls-3" x="67.06" y="110" width="2" height="4"/><rect class="cls-3" x="71.78" y="110" width="2" height="2"/><rect class="cls-3" x="76.5" y="110" width="2" height="4"/><rect class="cls-3" x="81.22" y="110" width="2" height="2"/><rect class="cls-3" x="85.95" y="110" width="2" height="4"/><rect class="cls-3" x="90.67" y="110" width="2" height="2"/><rect class="cls-3" x="95.39" y="110" width="2" height="4"/><rect class="cls-3" x="100.11" y="110" width="2" height="2"/><rect class="cls-3" x="104.83" y="110" width="2" height="4"/><rect class="cls-3" x="109.56" y="110" width="2" height="2"/><rect class="cls-3" x="114.28" y="110" width="2" height="4"/></g></g></svg>