<svg xmlns="http://www.w3.org/2000/svg" viewBox="0 0 155 155"><defs><style>.cls-1{fill:#fece66;}.cls-2{fill:#f5b540;}.cls-3{fill:#fd8369;}.cls-4{fill:#ea6552;}.cls-5{fill:#fff;}.cls-6{fill:#495057;}.cls-7{fill:#343b43;}.cls-8{fill:#1e262e;}.cls-9{fill:#cccbca;}</style></defs><title>Дизайн2</title><g id="Слой_2" data-name="Слой 2"><g id="Layer_1" data-name="Layer 1"><circle class="cls-1" cx="77.5" cy="77.5" r="77.5"/><path class="cls-2" d="M109.19,41.19l-68,68,45.28,45.28a77.51,77.51,0,0,0,68-68Z"/><rect class="cls-3" x="29.42" y="69.02" width="96.17" height="16.97" transform="translate(-32.1 77.5) rotate(-45)"/><rect class="cls-4" x="25.26" y="70.74" width="96.17" height="5.22" transform="translate(-30.38 73.35) rotate(-45)"/><rect class="cls-5" x="110.74" y="48.82" width="2.26" height="5.22" transform="translate(-3.57 94.24) rotate(-45.04)"/><rect class="cls-5" x="107.89" y="54.83" width="2.26" height="2.61" transform="translate(-7.76 93.53) rotate(-45)"/><rect class="cls-5" x="103.19" y="56.38" width="2.26" height="5.22" transform="translate(-11.16 91.04) rotate(-45)"/><rect class="cls-5" x="100.34" y="62.38" width="2.26" height="2.61" transform="translate(-15.34 90.3) rotate(-44.95)"/><rect class="cls-5" x="95.63" y="63.93" width="2.26" height="5.22" transform="translate(-18.71 87.91) rotate(-45)"/><rect class="cls-5" x="92.78" y="69.94" width="2.26" height="2.61" transform="translate(-22.87 87.31) rotate(-45.02)"/><rect class="cls-5" x="88.08" y="71.49" width="2.26" height="5.22" transform="translate(-26.27 84.75) rotate(-44.98)"/><rect class="cls-5" x="85.22" y="77.49" width="2.26" height="2.61" transform="translate(-30.43 84.11) rotate(-44.99)"/><rect class="cls-5" x="80.52" y="79.04" width="2.26" height="5.22" transform="translate(-33.82 81.58) rotate(-44.96)"/><rect class="cls-5" x="77.67" y="85.05" width="2.26" height="2.61" transform="translate(-37.99 81.09) rotate(-45.04)"/><rect class="cls-5" x="72.97" y="86.6" width="2.26" height="5.22" transform="translate(-41.38 78.55) rotate(-45.01)"/><rect class="cls-5" x="70.11" y="92.6" width="2.26" height="2.61" transform="translate(-45.53 77.81) rotate(-44.96)"/><rect class="cls-5" x="65.41" y="94.16" width="2.26" height="5.22" transform="translate(-48.93 75.4) rotate(-45)"/><rect class="cls-5" x="62.56" y="100.16" width="2.26" height="2.61" transform="translate(-53.1 74.76) rotate(-45)"/><rect class="cls-5" x="57.86" y="101.71" width="2.26" height="5.22" transform="translate(-56.48 72.23) rotate(-44.98)"/><rect class="cls-5" x="55" y="107.72" width="2.26" height="2.61" transform="translate(-60.67 71.7) rotate(-45.04)"/><rect class="cls-5" x="50.3" y="109.27" width="2.26" height="5.22" transform="translate(-64.04 69.14) rotate(-45)"/><rect class="cls-6" x="69.17" y="43.52" width="5.65" height="72.92" transform="translate(-35.47 74.35) rotate(-45.01)"/><rect class="cls-7" x="73.16" y="39.53" width="5.65" height="72.92" transform="translate(-31.47 76) rotate(-45.01)"/><rect class="cls-8" x="77.16" y="35.53" width="5.65" height="72.92" transform="translate(-27.48 77.62) rotate(-44.99)"/><polygon class="cls-5" points="56.21 44.21 45.28 41.29 41.29 45.27 44.22 56.2 56.21 44.21"/><polygon class="cls-9" points="56.21 44.21 52.21 48.21 43.95 42.62 45.28 41.29 56.21 44.21"/><polygon class="cls-7" points="45.28 41.29 39.83 39.83 41.29 45.27 45.28 41.29"/><rect class="cls-9" x="104.94" y="96.94" width="5.65" height="5.65" transform="translate(-38.98 105.46) rotate(-45.01)"/><rect class="cls-5" x="96.12" y="102.94" width="11.3" height="5.65" transform="translate(-44.98 102.97) rotate(-45.01)"/><path class="cls-4" d="M112.69,100.7l-.93-.93-4,4,.93.94a8.41,8.41,0,0,1,1.65,9.64,8.6,8.6,0,0,0,2.35-1.65,8.49,8.49,0,0,0,0-12Z"/><path class="cls-3" d="M108.69,104.7l-.93-.94-8,8,.93.93a8.46,8.46,0,0,0,9.64,1.65,8.41,8.41,0,0,0-1.65-9.64Z"/></g></g></svg>