<svg xmlns="http://www.w3.org/2000/svg" viewBox="0 0 155 155"><defs><style>.cls-1{fill:#495057;}.cls-2{fill:#343b43;}.cls-3{fill:#8fdef6;}.cls-4{fill:#fff;}.cls-5{fill:#fd8369;}.cls-6{fill:#fece66;}</style></defs><title>Разработка</title><g id="Слой_2" data-name="Слой 2"><g id="Layer_1" data-name="Layer 1"><circle class="cls-1" cx="77.5" cy="77.5" r="77.5"/><path class="cls-2" d="M119.14,44.41l0,0,0,0A3,3,0,0,0,117,43.5H38a3,3,0,0,0-3,3v62a3,3,0,0,0,.87,2.12l44.32,44.31A77.47,77.47,0,0,0,154.93,80.2Z"/><path class="cls-3" d="M120,108.5a3,3,0,0,1-3,3H38a3,3,0,0,1-3-3V58.8h85Z"/><path class="cls-4" d="M120,58.8H35V46.5a3,3,0,0,1,3-3h79a3,3,0,0,1,3,3Z"/><polygon class="cls-4" points="66.32 95.88 55.6 85.15 66.32 74.42 69.15 77.25 61.25 85.15 69.15 93.05 66.32 95.88"/><polygon class="cls-4" points="88.68 95.88 85.85 93.05 93.75 85.15 85.85 77.25 88.68 74.42 99.4 85.15 88.68 95.88"/><rect class="cls-4" x="61.91" y="83.15" width="31.18" height="4" transform="translate(-25.57 136.47) rotate(-74.16)"/><circle class="cls-5" cx="42.5" cy="51.15" r="2.5"/><circle class="cls-6" cx="50" cy="51.15" r="2.5"/><circle class="cls-3" cx="57.5" cy="51.15" r="2.5"/></g></g></svg>