<svg xmlns="http://www.w3.org/2000/svg" viewBox="0 0 155 155"><defs><style>.cls-1{fill:#fd8369;}.cls-2{fill:#ea6552;}.cls-3{fill:#343b43;}.cls-4{fill:#495057;}.cls-5{fill:#fff;}</style></defs><title>Опыт</title><g id="Слой_2" data-name="Слой 2"><g id="Layer_1" data-name="Layer 1"><circle class="cls-1" cx="77.5" cy="77.5" r="77.5"/><path class="cls-2" d="M154.69,84.2,119.12,48.63a3,3,0,0,0-2.12-.88h-3.91l-1.7-1.7H100.77v1.7H98.54l-8.18-8.18A6.11,6.11,0,0,0,86,37.76H69a6.16,6.16,0,0,0-6.16,6.17v3.82H55.93l-1.7-1.7H43.61v1.7H38a3,3,0,0,0-3,3v53.5a3,3,0,0,0,.88,2.12L84.2,154.69A77.49,77.49,0,0,0,154.69,84.2Z"/><path class="cls-3" d="M120,104.25a3,3,0,0,1-3,3H38a3,3,0,0,1-3-3V60.5h85Z"/><path class="cls-4" d="M120,60.5a17,17,0,0,1-17,17H52a17,17,0,0,1-17-17V50.75a3,3,0,0,1,3-3h79a3,3,0,0,1,3,3Z"/><path class="cls-3" d="M92.16,47.75H88.34V43.92A2.34,2.34,0,0,0,86,41.59H69a2.34,2.34,0,0,0-2.34,2.33v3.83H62.84V43.92A6.16,6.16,0,0,1,69,37.76H86a6.16,6.16,0,0,1,6.16,6.16Z"/><rect class="cls-3" x="43.61" y="46.05" width="10.62" height="1.7"/><rect class="cls-3" x="100.77" y="46.05" width="10.62" height="1.7"/><rect class="cls-5" x="72.83" y="71.76" width="9.35" height="11.47"/><rect class="cls-3" x="72.83" y="47.75" width="9.35" height="24.01"/><rect class="cls-4" x="72.83" y="83.24" width="9.35" height="24.01"/></g></g></svg>