<?xml version="1.0" encoding="UTF-8" standalone="no"?>
<svg width="124px" height="38px" viewBox="0 0 124 38" version="1.1" xmlns="http://www.w3.org/2000/svg" xmlns:xlink="http://www.w3.org/1999/xlink" xmlns:sketch="http://www.bohemiancoding.com/sketch/ns">
    <!-- Generator: Sketch 3.4.4 (17249) - http://www.bohemiancoding.com/sketch -->
    <title>main</title>
    <desc>Created with Sketch.</desc>
    <defs></defs>
    <g id="Page-1" stroke="none" stroke-width="1" fill="none" fill-rule="evenodd" sketch:type="MSPage">
        <g id="main" sketch:type="MSLayerGroup" fill="#FEFEFE">
            <path d="M119.615,23.049 L123.353,23.049 L123.353,19.309 L119.615,19.309 L119.615,23.049 Z" id="Fill-1" sketch:type="MSShapeGroup"></path>
            <path d="M112.139,26.786 L119.616,26.786 L119.616,23.049 L112.139,23.049 L112.139,26.786 Z" id="Fill-2" sketch:type="MSShapeGroup"></path>
            <path d="M108.4014,0.6203 L108.4014,23.0493 L112.1384,23.0493 L112.1384,11.8343 L119.6154,11.8343 L119.6154,8.0973 L112.1384,8.0973 L112.1384,0.6203 L108.4014,0.6203 Z" id="Fill-3" sketch:type="MSShapeGroup"></path>
            <path d="M97.1874,8.0977 L97.1874,11.8347 L100.9244,11.8347 L100.9244,26.7857 L104.6614,26.7857 L104.6614,11.8347 L104.6614,8.0977 L97.1874,8.0977 Z" id="Fill-4" sketch:type="MSShapeGroup"></path>
            <path d="M89.7102,0.6203 L89.7102,26.7863 L93.4502,26.7863 L93.4502,15.5713 L97.1872,15.5713 L97.1872,11.8343 L93.4502,11.8343 L93.4502,0.6203 L89.7102,0.6203 Z" id="Fill-5" sketch:type="MSShapeGroup"></path>
            <path d="M85.9732,8.0977 L74.7592,8.0977 L74.7592,11.8347 L82.2362,11.8347 L82.2362,23.0487 L74.7592,23.0487 L74.7592,26.7857 L82.2362,26.7857 L82.2362,34.2597 L85.9732,34.2597 L85.9732,8.0977 Z" id="Fill-6" sketch:type="MSShapeGroup"></path>
            <path d="M74.759,38 L82.236,38 L82.236,34.26 L74.759,34.26 L74.759,38 Z" id="Fill-7" sketch:type="MSShapeGroup"></path>
            <path d="M71.022,34.26 L74.759,34.26 L74.759,30.523 L71.022,30.523 L71.022,34.26 Z" id="Fill-8" sketch:type="MSShapeGroup"></path>
            <path d="M74.759,11.834 L71.022,11.834 L71.022,23.048 L74.759,23.048 L74.759,11.834 Z" id="Fill-9" sketch:type="MSShapeGroup"></path>
            <path d="M63.545,26.786 L67.282,26.786 L67.282,8.098 L63.545,8.098 L63.545,26.786 Z" id="Fill-10" sketch:type="MSShapeGroup"></path>
            <path d="M63.544,4.357 L67.282,4.357 L67.282,0.62 L63.544,0.62 L63.544,4.357 Z" id="Fill-11" sketch:type="MSShapeGroup"></path>
            <path d="M59.808,23.049 L56.071,23.049 L56.071,26.786 L59.808,26.786 L59.808,23.049 Z" id="Fill-12" sketch:type="MSShapeGroup"></path>
            <path d="M56.071,11.834 L59.808,11.834 L59.808,4.357 L56.071,4.357 L56.071,11.834 Z" id="Fill-13" sketch:type="MSShapeGroup"></path>
            <path d="M52.331,23.049 L56.071,23.049 L56.071,19.309 L52.331,19.309 L52.331,23.049 Z" id="Fill-14" sketch:type="MSShapeGroup"></path>
            <path d="M41.1165,0.6203 L41.1165,26.7863 L44.8565,26.7863 L44.8565,15.5713 L48.5935,15.5713 L48.5935,19.3083 L52.3305,19.3083 L52.3305,15.5713 L56.0705,15.5713 L56.0705,11.8343 L44.8565,11.8343 L44.8565,8.0973 L44.8565,4.3573 L56.0705,4.3573 L56.0705,0.6203 L41.1165,0.6203 Z" id="Fill-15" sketch:type="MSShapeGroup"></path>
            <path d="M33.6426,26.7856 L37.3796,26.7856 L37.3796,8.0976 L29.9056,8.0976 L29.9056,11.8346 L33.6426,11.8346 L33.6426,26.7856 Z" id="Fill-16" sketch:type="MSShapeGroup"></path>
            <path d="M26.1653,8.0977 L22.4283,8.0977 L22.4283,26.7857 L26.1653,26.7857 L26.1653,15.5717 L29.9053,15.5717 L29.9053,11.8347 L26.1653,11.8347 L26.1653,8.0977 Z" id="Fill-17" sketch:type="MSShapeGroup"></path>
            <path d="M0,0.6203 L0,4.3573 L7.477,4.3573 L7.477,23.0493 L0,23.0493 L0,26.7863 L18.691,26.7863 L18.691,23.0493 L11.214,23.0493 L11.214,4.3573 L18.691,4.3573 L18.691,0.6203 L0,0.6203 Z" id="Fill-18" sketch:type="MSShapeGroup"></path>
        </g>
    </g>
</svg>