<svg xmlns="http://www.w3.org/2000/svg" viewBox="0 0 155 155"><defs><style>.cls-1{fill:#fece66;}.cls-2{fill:#f5b540;}.cls-3{fill:#343b43;}.cls-4{fill:#fff;}.cls-5{fill:#ea6552;}</style></defs><title>SEO</title><g id="Слой_2" data-name="Слой 2"><g id="Layer_1" data-name="Layer 1"><circle class="cls-1" cx="77.5" cy="77.5" r="77.5"/><path class="cls-2" d="M83.78,154.72a77.52,77.52,0,0,0,69.16-59.48L134.35,76.65h-1.41l-2.26-2.25a4.41,4.41,0,0,0-3.12-1.3h-.5c-.73,0-1.46,0-2.19.11l-21-21-.67-.67-.2-.2-.15-.15-.68-.62-.46-.43-.78-.66-.55-.46-.75-.58L99,48c-.24-.18-.49-.34-.73-.51l-.7-.48c-.23-.16-.48-.3-.72-.46L96.11,46l-.73-.41c-.26-.15-.52-.3-.79-.44l-.74-.37c-.27-.14-.53-.28-.81-.41l-.76-.34c-.28-.12-.55-.25-.83-.36l-.79-.31-.84-.32L89,42.8l-.83-.28-.88-.24-.82-.23c-.31-.08-.63-.14-.94-.21l-.79-.18-1-.18c-.25,0-.5-.1-.76-.13s-.7-.09-1.06-.14l-.73-.09c-.39,0-.79-.06-1.18-.09l-.64,0c-.61,0-1.22-.05-1.84-.05s-1.17,0-1.75,0l-.57,0c-.39,0-.78,0-1.16.09l-.67.07-1,.13-.69.11c-.34,0-.67.11-1,.18l-.68.13-1,.23-.65.16-1,.29-.59.17L65.43,43l-.36.12-1.53.6-.51.22c-.33.15-.67.29-1,.45l-.61.3-.86.43c-.22.11-.43.23-.64.35s-.54.29-.8.45l-.64.38-.76.48-.63.41-.73.51-.61.44c-.25.18-.48.37-.72.56l-.58.44-1.18,1-.59.56c-.2.18-.4.36-.59.55l-.62.61-.52.54-.6.66c-.16.17-.32.35-.47.53s-.4.47-.6.7l-.43.54c-.19.24-.39.49-.58.75l-.38.51c-.19.27-.39.54-.57.81l-.29.44A33.6,33.6,0,0,0,45,60.86a.16.16,0,0,0,0,.07c-.19.36-.36.72-.53,1.09l-.18.37-.45,1-.18.44c-.14.35-.28.71-.41,1.07-.05.14-.11.29-.16.44-.13.36-.25.73-.37,1.11l-.12.4c-.12.39-.24.78-.34,1.18a2.68,2.68,0,0,0-.07.27A36.51,36.51,0,0,0,41,76.64H32.83l-3.91-3.91h0L20.65,77.5l36.76,36.76v14.09Z"/><rect class="cls-3" x="57.41" y="101.65" width="6.77" height="26.7"/><rect class="cls-3" x="90.81" y="101.65" width="6.78" height="26.7"/><rect class="cls-3" x="64.18" y="118.41" width="26.63" height="3.46"/><rect class="cls-3" x="28.92" y="76.64" width="58.44" height="1.72"/><polygon class="cls-3" points="28.92 82.27 20.65 77.5 28.92 72.73 28.92 82.27"/><path class="cls-4" d="M77.5,114.06a36.56,36.56,0,1,1,36.56-36.55A36.59,36.59,0,0,1,77.5,114.06Z"/><path class="cls-1" d="M77.5,101.88a24.38,24.38,0,1,1,24.38-24.37A24.4,24.4,0,0,1,77.5,101.88Z"/><path class="cls-5" d="M77.5,89.69A12.19,12.19,0,1,1,89.69,77.51,12.21,12.21,0,0,1,77.5,89.69Z"/><path class="cls-5" d="M132,77.51a4.42,4.42,0,0,0-4.41-4.42h-.5a25.31,25.31,0,0,0-6,.73A24.94,24.94,0,0,0,115.4,76l-3,1.55,3,1.57a25.12,25.12,0,0,0,11.65,2.85h.5A4.4,4.4,0,0,0,132,77.51Z"/><path class="cls-3" d="M134.35,76.64H77.5a.85.85,0,0,0-.86.86.86.86,0,0,0,.86.86h56.85Z"/></g></g></svg>