<svg xmlns="http://www.w3.org/2000/svg" viewBox="0 0 155 155"><defs><style>.cls-1{fill:#8fdef6;}.cls-2{fill:#70c9e9;}.cls-3{fill:#343b43;}.cls-4{fill:#fff;}.cls-5{fill:#ea6552;}</style></defs><title>Скорость</title><g id="Слой_2" data-name="Слой 2"><g id="Layer_1" data-name="Layer 1"><circle class="cls-1" cx="77.5" cy="77.5" r="77.5"/><path class="cls-2" d="M109.52,49.57l-4.09-4.09A42.49,42.49,0,0,0,46,106l0,0L48.93,109l0,0,44.38,44.37a77.58,77.58,0,0,0,60-60Z"/><path class="cls-3" d="M77.49,35A42.49,42.49,0,1,0,120,77.5,42.49,42.49,0,0,0,77.49,35Z"/><path class="cls-4" d="M112.76,77.5A35.27,35.27,0,1,1,77.5,42.24,35.27,35.27,0,0,1,112.76,77.5Z"/><path class="cls-5" d="M77.5,42.24V77.5h35.26A35.27,35.27,0,0,0,77.5,42.24Z"/><rect class="cls-3" x="75.5" y="57.15" width="3.99" height="15.97"/><rect class="cls-3" x="81.88" y="75.5" width="15.96" height="3.99"/><path class="cls-3" d="M84.88,77.5a7.39,7.39,0,1,1-7.39-7.39A7.38,7.38,0,0,1,84.88,77.5Z"/><path class="cls-4" d="M80.88,77.5a3.39,3.39,0,1,1-3.39-3.4A3.39,3.39,0,0,1,80.88,77.5Z"/><path class="cls-5" d="M79.49,77.5a2,2,0,1,1-2-2A2,2,0,0,1,79.49,77.5Z"/><path class="cls-3" d="M77.5,49.52a2,2,0,1,1,2-2A2,2,0,0,1,77.5,49.52Z"/><path class="cls-3" d="M63.5,53.27a2,2,0,1,1,.73-2.73A2,2,0,0,1,63.5,53.27Z"/><path class="cls-3" d="M53.26,63.51a2,2,0,1,1-.73-2.72A2,2,0,0,1,53.26,63.51Z"/><path class="cls-3" d="M49.51,77.5a2,2,0,1,1-2-2A2,2,0,0,1,49.51,77.5Z"/><path class="cls-3" d="M53.26,91.49a2,2,0,1,1-2.72-.73A2,2,0,0,1,53.26,91.49Z"/><path class="cls-3" d="M63.5,101.73a2,2,0,1,1-2.72.73A2,2,0,0,1,63.5,101.73Z"/><path class="cls-3" d="M77.49,105.48a2,2,0,1,1-2,2A2,2,0,0,1,77.49,105.48Z"/><path class="cls-3" d="M91.49,101.74a2,2,0,0,1,2.72.72,2,2,0,1,1-3.46,2A2,2,0,0,1,91.49,101.74Z"/><path class="cls-3" d="M101.72,91.49a2,2,0,1,1,.74,2.73A2,2,0,0,1,101.72,91.49Z"/><path class="cls-3" d="M105.47,77.5a2,2,0,1,1,2,2A2,2,0,0,1,105.47,77.5Z"/><path class="cls-3" d="M101.72,63.51a2,2,0,1,1,2.74.73A2,2,0,0,1,101.72,63.51Z"/><path class="cls-3" d="M91.49,53.27a2,2,0,1,1,2.72-.73A2,2,0,0,1,91.49,53.27Z"/></g></g></svg>