<svg xmlns="http://www.w3.org/2000/svg" viewBox="0 0 155 155"><defs><style>.cls-1{fill:#fece66;}.cls-2{fill:#f5b540;}.cls-3{fill:#495057;}.cls-4{fill:#343b43;}.cls-5{fill:#fd8369;}.cls-6{fill:#fff;}.cls-7{fill:#e24f3b;}</style></defs><title>Технологии2</title><g id="Слой_2" data-name="Слой 2"><g id="Layer_1" data-name="Layer 1"><circle class="cls-1" cx="77.5" cy="77.5" r="77.5"/><path class="cls-2" d="M153.23,94,112.7,53.46,101.54,42.3,96,39.08,90.73,45l-10-10H74.28L72.4,44.38h.07A33.08,33.08,0,0,0,66,46l-7-7h0L53.46,42.3l3.06,9.08a33.31,33.31,0,0,0-5.14,5.14l-9.07-3.06L39.09,59h0L46,66a33.43,33.43,0,0,0-1.66,6.42L35,74.28v6.44l10,10L39.09,96l3.22,5.58L53.46,112.7h0L94,153.22A77.57,77.57,0,0,0,153.23,94Z"/><polygon class="cls-3" points="80.72 35 74.28 35 72.4 44.38 82.6 44.38 80.72 35"/><polygon class="cls-3" points="59.05 39.07 53.46 42.3 56.52 51.38 65.36 46.25 59.05 39.07"/><polygon class="cls-3" points="42.31 53.46 39.09 59.03 46.27 65.36 51.38 56.52 42.31 53.46"/><polygon class="cls-3" points="35 74.28 35.01 80.72 44.39 82.6 44.39 72.4 35 74.28"/><polygon class="cls-3" points="39.09 95.96 42.31 101.54 51.38 98.48 46.27 89.65 39.09 95.96"/><polygon class="cls-3" points="53.46 112.7 59.05 115.91 65.36 108.74 56.52 103.62 53.46 112.7"/><polygon class="cls-3" points="74.28 120 80.72 120 82.6 110.62 72.4 110.62 74.28 120"/><polygon class="cls-3" points="95.96 115.91 101.54 112.7 98.48 103.62 89.64 108.74 95.96 115.91"/><polygon class="cls-3" points="112.7 101.54 115.92 95.96 108.73 89.65 103.63 98.48 112.7 101.54"/><polygon class="cls-3" points="120 80.72 120 74.28 110.62 72.4 110.62 82.6 120 80.72"/><polygon class="cls-3" points="115.92 59.03 112.7 53.47 103.63 56.52 108.73 65.36 115.92 59.03"/><polygon class="cls-3" points="101.54 42.3 95.95 39.08 89.64 46.25 98.48 51.38 101.54 42.3"/><path class="cls-4" d="M77.5,44A33.5,33.5,0,1,0,111,77.5,33.5,33.5,0,0,0,77.5,44Zm0,59A25.5,25.5,0,1,1,103,77.5,25.5,25.5,0,0,1,77.5,103Z"/><path class="cls-4" d="M90.42,90.43A18.28,18.28,0,1,1,70.51,60.62l7,16.88Z"/><path class="cls-5" d="M95.78,77.5H77.5V59.22A18.29,18.29,0,0,1,95.78,77.5Z"/><path class="cls-6" d="M95.78,77.5a18.23,18.23,0,0,1-5.36,12.93L77.5,77.5Z"/><path class="cls-7" d="M77.5,59.22V77.5l-7-16.88A18.06,18.06,0,0,1,77.5,59.22Z"/></g></g></svg>